# xmcd CD database file
#
# Track frame offsets:
#	150
#	14441
#	23048
#	44750
#	60271
#	80216
#	99654
#	114092
#	135525
#	145722
#	155953
#
# Disc length: 2746 seconds
#
# Revision: 0
# Processed by: cddbd v1.5.2PL0 Copyright (c) Steve Scherf et al.
# Submitted via: Feurio! 1.68 - http://www.feurio.com
#
DISCID=900ab80b
DTITLE=B.B. King - Piazza Blues Festival   Bellinzona, Switzerland   06-30-01  
DTITLE=Disc 2
DYEAR=1900
DGENRE=
TTITLE0=Ain't That Just Like A Woman
TTITLE1=You Are My Sunshine
TTITLE2=How Blue Can You Get
TTITLE3=Days Of Old
TTITLE4=Key To The Highway
TTITLE5=The Thrill Is Gone
TTITLE6=I Know
TTITLE7=Don't Go No Farther
TTITLE8=thank you
TTITLE9=Please Accept My Love
TTITLE10=Making Love Is Good For You - band intro
EXTD=
EXTT0=
EXTT1=
EXTT2=
EXTT3=
EXTT4=
EXTT5=
EXTT6=
EXTT7=
EXTT8=
EXTT9=
EXTT10=
PLAYORDER=
